<?xml version="1.0" standalone="no"?>
<!DOCTYPE svg PUBLIC "-//W3C//DTD SVG 20010904//EN"
 "http://www.w3.org/TR/2001/REC-SVG-20010904/DTD/svg10.dtd">
<svg version="1.0" xmlns="http://www.w3.org/2000/svg"
 width="512.000000pt" height="512.000000pt" viewBox="0 0 512.000000 512.000000"
 preserveAspectRatio="xMidYMid meet">

<g transform="translate(0.000000,512.000000) scale(0.100000,-0.100000)"
fill="#fff" stroke="none">
<path d="M4280 5034 c-222 -40 -425 -169 -548 -351 -65 -96 -158 -292 -226
-475 -10 -27 -22 -48 -27 -48 -4 0 -24 34 -44 76 -135 293 -442 564 -672 593
-113 14 -197 -9 -314 -86 -69 -45 -123 -97 -154 -151 -16 -27 -23 -30 -44 -24
-15 4 -69 7 -121 7 -85 -1 -102 -4 -163 -32 -161 -76 -276 -209 -306 -354
l-12 -56 -76 -11 c-103 -16 -207 -68 -286 -141 -78 -74 -122 -146 -145 -239
l-17 -72 -140 122 c-78 68 -190 167 -250 221 -176 158 -230 187 -348 187 -119
0 -220 -69 -276 -190 -22 -47 -26 -69 -26 -145 1 -112 12 -139 160 -372 559
-875 885 -1231 1610 -1754 88 -64 200 -143 249 -175 84 -55 94 -66 162 -169
l73 -110 -49 -43 c-72 -63 -105 -136 -105 -233 0 -75 1 -79 71 -215 40 -77
104 -215 144 -309 79 -187 164 -356 190 -380 9 -8 30 -18 47 -21 26 -5 37 -1
57 19 38 38 33 71 -25 181 -28 54 -47 101 -43 105 5 4 61 22 124 40 638 180
1273 546 1810 1042 l134 125 94 -146 c117 -181 125 -190 173 -190 42 0 79 35
79 75 0 12 -51 101 -114 196 -121 186 -208 336 -301 518 -92 179 -165 235
-308 236 l-78 0 -35 110 c-35 113 -84 302 -105 413 -12 63 -12 63 19 105 132
178 269 453 353 709 107 326 230 952 214 1092 -16 138 -85 241 -194 290 -59
26 -155 40 -211 30z m115 -165 c63 -16 110 -70 125 -145 11 -51 9 -77 -9 -199
-126 -803 -309 -1280 -640 -1665 -64 -74 -81 -101 -81 -125 0 -69 80 -100 136
-51 l28 23 37 -146 c20 -80 51 -189 68 -242 17 -53 31 -101 31 -108 0 -13 -47
-57 -166 -152 -361 -288 -783 -516 -1232 -665 -89 -30 -171 -54 -182 -54 -13
0 -32 20 -56 57 -139 219 -130 209 -248 291 -736 508 -1037 782 -1414 1287
-145 194 -464 673 -525 789 -30 57 -31 163 -1 203 52 70 133 92 205 55 19 -10
120 -94 224 -187 104 -94 266 -236 360 -317 93 -81 218 -200 276 -265 118
-133 256 -258 372 -340 42 -30 77 -56 77 -59 0 -2 -23 -35 -52 -74 -61 -84
-66 -120 -24 -157 55 -47 81 -32 186 104 l55 71 80 4 c111 6 180 35 260 110
97 90 145 190 145 301 0 46 1 49 23 43 12 -3 44 -6 70 -6 l48 0 -8 -72 c-4
-40 -7 -85 -7 -101 3 -87 129 -96 153 -10 6 21 11 50 11 65 0 15 7 60 15 100
63 301 235 558 457 681 86 48 223 87 308 87 84 0 111 19 136 93 58 178 167
411 239 512 90 127 255 236 400 265 58 11 71 11 120 -1z m-1505 -254 c152 -91
305 -254 384 -411 31 -61 33 -70 18 -75 -148 -57 -257 -119 -341 -195 -23 -20
-44 -35 -47 -32 -2 3 -22 42 -44 87 -22 46 -60 114 -85 152 -58 90 -195 232
-284 295 -39 27 -70 52 -71 55 0 4 20 30 46 58 29 32 70 63 117 86 67 34 77
36 148 33 70 -3 81 -7 159 -53z m-627 -224 c150 -79 299 -212 382 -340 49 -76
106 -193 126 -259 11 -38 10 -44 -19 -89 -27 -43 -90 -171 -120 -245 -14 -33
-76 -53 -144 -45 -80 10 -101 27 -146 121 -103 215 -268 396 -466 511 l-68 40
6 47 c7 62 28 106 78 163 103 117 256 157 371 96z m-515 -457 c166 -81 347
-265 439 -449 103 -205 108 -326 18 -433 -64 -76 -195 -113 -290 -82 -65 21
-263 180 -395 317 -190 195 -238 279 -227 389 7 65 27 104 85 166 113 121 242
153 370 92z m2651 -1833 c21 -15 49 -57 81 -119 27 -54 67 -129 89 -169 l41
-71 -133 -128 c-455 -437 -1051 -799 -1620 -984 -177 -58 -300 -91 -307 -83
-4 4 -24 49 -44 98 -21 50 -67 146 -102 214 -35 68 -64 136 -64 149 0 36 37
107 63 125 13 8 74 29 137 47 554 156 1042 404 1470 744 69 55 146 119 171
143 25 23 56 47 70 53 38 16 112 6 148 -19z"/>
</g>
</svg>
